<svg xmlns="http://www.w3.org/2000/svg" viewBox="0 0 880 560" width="880" height="560"><defs>
<linearGradient id="g" x1="0" y1="0" x2="1" y2="1"><stop offset="0" stop-color="#1c398e"/><stop offset="1" stop-color="#155dfc"/></linearGradient>
<pattern id="d" width="26" height="26" patternUnits="userSpaceOnUse"><circle cx="13" cy="13" r="1.7" fill="#fff" opacity=".18"/></pattern>
<filter id="s" x="-10%" y="-10%" width="120%" height="130%"><feDropShadow dx="0" dy="14" stdDeviation="16" flood-color="#010024" flood-opacity=".32"/></filter></defs>
<rect width="880" height="560" fill="url(#g)"/><rect width="880" height="560" fill="url(#d)"/>
<circle cx="760" cy="70" r="210" fill="#fff" opacity=".08"/><circle cx="90" cy="520" r="190" fill="#fff" opacity=".06"/>
<g filter="url(#s)"><rect x="150" y="48" width="580" height="64" rx="32" fill="#fff"/></g><circle cx="196" cy="78" r="13" fill="none" stroke="#155dfc" stroke-width="5"/><path d="m206 88 12 12" stroke="#155dfc" stroke-width="5" stroke-linecap="round"/><text x="236" y="88" font-family="system-ui,-apple-system,Segoe UI,Roboto,Arial,sans-serif" font-size="24" font-weight="500" fill="#1e2939">seo services in pakistan</text><g filter="url(#s)"><rect x="110" y="146" width="660" height="170" rx="18" fill="#fff"/></g><g transform="translate(110 146)"><text x="28" y="40" font-family="system-ui,-apple-system,Segoe UI,Roboto,Arial,sans-serif" font-size="15" font-weight="700" letter-spacing=".8" fill="#155dfc">AI OVERVIEW</text><rect x="28" y="60" width="560" height="12" rx="6.0" fill="#e5e7eb"/><rect x="28" y="84" width="410" height="12" rx="6.0" fill="#e5e7eb"/><rect x="28" y="112" width="400" height="38" rx="10" fill="#dbeafe"/><path d="m44 132 8 8 16-16" fill="none" stroke="#155dfc" stroke-width="4" stroke-linecap="round" stroke-linejoin="round"/><text x="78" y="138" font-family="system-ui,-apple-system,Segoe UI,Roboto,Arial,sans-serif" font-size="18" font-weight="700" fill="#101828">Your business, named in the answer</text></g><g filter="url(#s)"><rect x="110" y="344" width="318" height="180" rx="18" fill="#fff"/></g><g transform="translate(110 344)"><text x="28" y="40" font-family="system-ui,-apple-system,Segoe UI,Roboto,Arial,sans-serif" font-size="15" font-weight="700" letter-spacing=".8" fill="#155dfc">GOOGLE MAPS</text><rect x="22" y="56" width="274" height="42" rx="10" fill="#dbeafe" stroke="#155dfc" stroke-width="3"/><text x="36" y="84" font-family="system-ui,-apple-system,Segoe UI,Roboto,Arial,sans-serif" font-size="18" font-weight="700" fill="#101828">Your Business</text><text x="184" y="84" font-size="18" fill="#f59e0b">&#9733;&#9733;&#9733;&#9733;&#9733;</text><rect x="28" y="118" width="230" height="12" rx="6.0" fill="#e5e7eb"/><rect x="28" y="146" width="190" height="12" rx="6.0" fill="#e5e7eb"/></g><g filter="url(#s)"><rect x="452" y="344" width="318" height="180" rx="18" fill="#fff" stroke="#155dfc" stroke-width="4"/></g><g transform="translate(452 344)"><circle cx="50" cy="56" r="26" fill="#155dfc"/><text x="50" y="65" text-anchor="middle" font-family="system-ui,-apple-system,Segoe UI,Roboto,Arial,sans-serif" font-size="26" font-weight="800" fill="#fff">1</text><text x="92" y="52" font-family="system-ui,-apple-system,Segoe UI,Roboto,Arial,sans-serif" font-size="20" font-weight="700" fill="#101828">yourwebsite.com</text><rect x="92" y="66" width="180" height="12" rx="6.0" fill="#e5e7eb"/><rect x="28" y="108" width="262" height="12" rx="6.0" fill="#e5e7eb"/><rect x="28" y="136" width="200" height="12" rx="6.0" fill="#e5e7eb"/></g></svg>